<?xml version="1.0" encoding="utf-8"?>
<!-- Generator: Adobe Illustrator 16.0.0, SVG Export Plug-In . SVG Version: 6.00 Build 0)  -->
<!DOCTYPE svg PUBLIC "-//W3C//DTD SVG 1.1//EN" "http://www.w3.org/Graphics/SVG/1.1/DTD/svg11.dtd">
<svg version="1.1" id="Layer_1" xmlns="http://www.w3.org/2000/svg" xmlns:xlink="http://www.w3.org/1999/xlink" x="0px" y="0px"
	 width="58.909px" height="54px" viewBox="0 0 58.909 54" enable-background="new 0 0 58.909 54" xml:space="preserve">
<g>
	<circle opacity="0.7" fill="#3B5999" cx="31.425" cy="24.849" r="23.849"/>
	<g>
		<path fill="#3C3D3D" d="M25.52,41.511h5.737V27.145h4.002l0.427-4.81h-4.43c0,0,0-1.795,0-2.739c0-1.134,0.228-1.583,1.325-1.583
			c0.883,0,3.105,0,3.105,0v-4.992c0,0-3.274,0-3.973,0c-4.269,0-6.194,1.88-6.194,5.479c0,3.135,0,3.835,0,3.835h-2.984v4.871
			h2.984V41.511z"/>
		<g>
			
				<path fill="none" stroke="#3C3D3D" stroke-width="2.1976" stroke-linecap="round" stroke-linejoin="round" stroke-miterlimit="10" d="
				M13.217,44.921c-0.353-0.316-0.696-0.642-1.03-0.979"/>
			
				<path fill="none" stroke="#3C3D3D" stroke-width="2.1976" stroke-linecap="round" stroke-linejoin="round" stroke-miterlimit="10" d="
				M50.312,16.198c1.699,3.28,2.659,7.004,2.659,10.953C52.971,40.322,42.294,51,29.123,51c-4.886,0-9.428-1.469-13.21-3.989"/>
			
				<path fill="none" stroke="#3C3D3D" stroke-width="2.1976" stroke-linecap="round" stroke-linejoin="round" stroke-miterlimit="10" d="
				M9.894,41.262C6.99,37.31,5.273,32.431,5.273,27.151c0-13.171,10.678-23.849,23.849-23.849c7.964,0,15.016,3.903,19.347,9.901"/>
		</g>
	</g>
</g>
</svg>
