<?xml version="1.0" encoding="utf-8"?>
<!-- Generator: Adobe Illustrator 16.0.0, SVG Export Plug-In . SVG Version: 6.00 Build 0)  -->
<!DOCTYPE svg PUBLIC "-//W3C//DTD SVG 1.1//EN" "http://www.w3.org/Graphics/SVG/1.1/DTD/svg11.dtd">
<svg version="1.1" id="Layer_1" xmlns="http://www.w3.org/2000/svg" xmlns:xlink="http://www.w3.org/1999/xlink" x="0px" y="0px"
	 width="58px" height="56px" viewBox="0 0 58 56" enable-background="new 0 0 58 56" xml:space="preserve">
<g>
	<linearGradient id="SVGID_1_" gradientUnits="userSpaceOnUse" x1="46.6455" y1="14.4888" x2="7.6944" y2="43.573">
		<stop  offset="0" style="stop-color:#CD486B"/>
		<stop  offset="0.1929" style="stop-color:#CF4B68"/>
		<stop  offset="0.3289" style="stop-color:#D4545F"/>
		<stop  offset="0.4473" style="stop-color:#DC6450"/>
		<stop  offset="0.5551" style="stop-color:#E8793B"/>
		<stop  offset="0.6543" style="stop-color:#F79520"/>
		<stop  offset="0.9168" style="stop-color:#FBB03B"/>
	</linearGradient>
	<ellipse opacity="0.7" fill="url(#SVGID_1_)" cx="30.87" cy="26.268" rx="23.855" ry="23.849"/>
	<g>
		<g>
			<path fill="#3C3D3D" d="M29,18.098c3.451,0,3.86,0.013,5.222,0.076c1.261,0.057,1.945,0.268,2.401,0.444
				c0.603,0.235,1.033,0.515,1.485,0.967s0.732,0.883,0.967,1.486c0.177,0.455,0.388,1.14,0.445,2.399
				c0.062,1.363,0.075,1.771,0.075,5.222c0,3.451-0.013,3.859-0.075,5.222c-0.058,1.26-0.269,1.943-0.445,2.399
				c-0.234,0.603-0.515,1.033-0.967,1.485s-0.883,0.732-1.485,0.966c-0.456,0.178-1.141,0.388-2.401,0.445
				c-1.362,0.062-1.771,0.075-5.222,0.075s-3.86-0.013-5.223-0.075c-1.26-0.058-1.944-0.268-2.4-0.445
				c-0.603-0.233-1.033-0.514-1.486-0.966c-0.452-0.452-0.732-0.883-0.967-1.485c-0.177-0.456-0.388-1.14-0.445-2.399
				c-0.062-1.363-0.075-1.771-0.075-5.222c0-3.45,0.013-3.859,0.075-5.222c0.058-1.26,0.269-1.944,0.445-2.399
				c0.234-0.603,0.515-1.034,0.967-1.486c0.453-0.452,0.883-0.732,1.486-0.967c0.456-0.177,1.14-0.387,2.4-0.444
				C25.14,18.111,25.549,18.098,29,18.098 M29,15.77c-3.51,0-3.951,0.015-5.329,0.078c-1.376,0.063-2.316,0.281-3.138,0.601
				c-0.85,0.331-1.571,0.772-2.289,1.491c-0.719,0.718-1.161,1.439-1.491,2.289c-0.32,0.822-0.539,1.761-0.601,3.137
				c-0.063,1.378-0.078,1.818-0.078,5.328s0.015,3.949,0.078,5.328c0.062,1.375,0.281,2.315,0.601,3.137
				c0.33,0.85,0.772,1.57,1.491,2.289c0.718,0.718,1.439,1.16,2.289,1.49c0.822,0.319,1.762,0.538,3.138,0.601
				c1.378,0.062,1.818,0.078,5.329,0.078s3.95-0.016,5.329-0.078c1.376-0.062,2.316-0.281,3.138-0.601
				c0.85-0.33,1.57-0.772,2.289-1.49c0.719-0.719,1.161-1.439,1.491-2.289c0.319-0.821,0.538-1.762,0.601-3.137
				c0.063-1.379,0.078-1.818,0.078-5.328s-0.015-3.95-0.078-5.328c-0.062-1.375-0.281-2.315-0.601-3.137
				c-0.33-0.85-0.772-1.57-1.491-2.289c-0.719-0.719-1.439-1.16-2.289-1.491c-0.821-0.319-1.762-0.538-3.138-0.601
				C32.95,15.785,32.51,15.77,29,15.77"/>
			<path fill="#3C3D3D" d="M29,22.056c-3.666,0-6.637,2.971-6.637,6.636s2.972,6.635,6.637,6.635s6.637-2.971,6.637-6.635
				S32.666,22.056,29,22.056 M29,33c-2.379,0-4.309-1.93-4.309-4.308c0-2.379,1.929-4.308,4.309-4.308s4.309,1.929,4.309,4.308
				C33.309,31.07,31.379,33,29,33"/>
			<path fill="#3C3D3D" d="M37.451,21.794c0,0.856-0.694,1.551-1.551,1.551s-1.552-0.694-1.552-1.551c0-0.856,0.695-1.55,1.552-1.55
				S37.451,20.938,37.451,21.794"/>
		</g>
		<g>
			
				<path fill="none" stroke="#3C3D3D" stroke-width="2.1979" stroke-linecap="round" stroke-linejoin="round" stroke-miterlimit="10" d="
				M46.384,44.442c-4.369,4.896-10.728,7.977-17.805,7.977c-13.174,0-23.854-10.677-23.854-23.849
				c0-13.171,10.68-23.849,23.854-23.849c13.175,0,23.855,10.677,23.855,23.849c0,2.902-0.519,5.684-1.468,8.256"/>
			
				<path fill="none" stroke="#3C3D3D" stroke-width="2.1979" stroke-linecap="round" stroke-linejoin="round" stroke-miterlimit="10" d="
				M49.54,39.967c-0.334,0.612-0.694,1.208-1.078,1.787"/>
		</g>
	</g>
</g>
</svg>
