<?xml version="1.0" encoding="utf-8"?>
<!-- Generator: Adobe Illustrator 16.0.0, SVG Export Plug-In . SVG Version: 6.00 Build 0)  -->
<!DOCTYPE svg PUBLIC "-//W3C//DTD SVG 1.1//EN" "http://www.w3.org/Graphics/SVG/1.1/DTD/svg11.dtd">
<svg version="1.1" id="Layer_1" xmlns="http://www.w3.org/2000/svg" xmlns:xlink="http://www.w3.org/1999/xlink" x="0px" y="0px"
	 width="59px" height="57px" viewBox="0 0 59 57" enable-background="new 0 0 59 57" xml:space="preserve">
<g>
	<ellipse opacity="0.7" fill="#027BB6" cx="30.551" cy="26.646" rx="24.23" ry="23.647"/>
	<g>
		<g>
			
				<path fill="none" stroke="#3C3D3D" stroke-width="2.2057" stroke-linecap="round" stroke-linejoin="round" stroke-miterlimit="10" d="
				M40.465,50.196C37.055,51.984,33.154,53,29.011,53c-13.382,0-24.23-10.587-24.23-23.646c0-13.061,10.848-23.647,24.23-23.647
				c5.704,0,10.946,1.922,15.085,5.141"/>
			
				<path fill="none" stroke="#3C3D3D" stroke-width="2.2057" stroke-linecap="round" stroke-linejoin="round" stroke-miterlimit="10" d="
				M50.044,17.604c2.034,3.461,3.197,7.472,3.197,11.749c0,7.789-3.859,14.699-9.813,19.008"/>
			
				<path fill="none" stroke="#3C3D3D" stroke-width="2.2057" stroke-linecap="round" stroke-linejoin="round" stroke-miterlimit="10" d="
				M46.666,13.157c0.508,0.526,0.99,1.076,1.446,1.646"/>
		</g>
		<g>
			<g>
				<rect x="17.929" y="24.385" fill="#3C3D3D" width="4.956" height="15.624"/>
				<ellipse fill="#3C3D3D" cx="20.383" cy="19.456" rx="2.93" ry="2.883"/>
			</g>
			<path fill="#3C3D3D" d="M30.805,31.807c0-2.195,1.037-3.504,3.021-3.504c1.821,0,2.698,1.256,2.698,3.504
				c0,2.251,0,8.202,0,8.202h4.932c0,0,0-5.707,0-9.893c0-4.185-2.431-6.208-5.825-6.208c-3.396,0-4.825,2.581-4.825,2.581v-2.104
				h-4.753v15.624h4.753C30.805,40.009,30.805,34.214,30.805,31.807z"/>
		</g>
	</g>
</g>
</svg>
