<?xml version="1.0" encoding="utf-8"?>
<!-- Generator: Adobe Illustrator 16.0.0, SVG Export Plug-In . SVG Version: 6.00 Build 0)  -->
<!DOCTYPE svg PUBLIC "-//W3C//DTD SVG 1.1//EN" "http://www.w3.org/Graphics/SVG/1.1/DTD/svg11.dtd">
<svg version="1.1" id="Layer_1" xmlns="http://www.w3.org/2000/svg" xmlns:xlink="http://www.w3.org/1999/xlink" x="0px" y="0px"
	 width="57.5px" height="56px" viewBox="0 0 57.5 56" enable-background="new 0 0 57.5 56" xml:space="preserve">
<g>
	<circle opacity="0.7" fill="#4176FA" cx="30.057" cy="26.672" r="24.158"/>
	
		<path fill="none" stroke="#3C3D3D" stroke-width="2.2261" stroke-linecap="round" stroke-linejoin="round" stroke-miterlimit="10" d="
		M45.769,44.434c-4.425,4.959-10.863,8.081-18.031,8.081c-13.342,0-24.158-10.816-24.158-24.159S14.395,4.197,27.737,4.197
		c13.343,0,24.159,10.816,24.159,24.158c0,2.94-0.526,5.757-1.487,8.363"/>
	
		<path fill="none" stroke="#3C3D3D" stroke-width="2.2261" stroke-linecap="round" stroke-linejoin="round" stroke-miterlimit="10" d="
		M48.964,39.9c-0.338,0.62-0.702,1.224-1.092,1.81"/>
	<path fill="#3C3D3D" d="M27.352,20.233c3.495,0,3.91,0.009,5.29,0.057c1.276,0.043,1.97,0.203,2.431,0.336
		c0.611,0.177,1.047,0.389,1.505,0.73c0.458,0.341,0.742,0.667,0.979,1.122c0.178,0.344,0.392,0.862,0.45,1.813
		c0.063,1.029,0.076,1.338,0.076,3.944c0,2.606-0.013,2.917-0.076,3.945c-0.059,0.952-0.272,1.469-0.45,1.813
		c-0.237,0.455-0.521,0.781-0.979,1.123c-0.458,0.342-0.894,0.553-1.505,0.729c-0.46,0.134-1.154,0.293-2.431,0.338
		c-1.38,0.046-1.794,0.056-5.29,0.056s-3.909-0.009-5.289-0.056c-1.276-0.045-1.969-0.204-2.43-0.338
		c-0.611-0.176-1.046-0.387-1.505-0.729s-0.742-0.667-0.979-1.123c-0.179-0.344-0.392-0.861-0.451-1.813
		c-0.062-1.028-0.076-1.338-0.076-3.945c0-2.606,0.014-2.915,0.076-3.944c0.059-0.951,0.272-1.469,0.451-1.813
		c0.238-0.455,0.521-0.781,0.979-1.122c0.458-0.342,0.894-0.553,1.505-0.73c0.461-0.133,1.154-0.293,2.43-0.336
		C23.443,20.242,23.857,20.233,27.352,20.233 M27.352,18.474c-3.555,0-4,0.011-5.397,0.059c-1.392,0.047-2.344,0.212-3.176,0.454
		c-0.861,0.249-1.591,0.583-2.319,1.125c-0.727,0.543-1.175,1.087-1.509,1.729c-0.324,0.621-0.545,1.331-0.607,2.37
		c-0.065,1.041-0.08,1.373-0.08,4.024s0.015,2.984,0.08,4.025c0.062,1.039,0.283,1.749,0.607,2.37
		c0.334,0.641,0.783,1.186,1.509,1.728c0.728,0.543,1.458,0.877,2.319,1.126c0.832,0.241,1.784,0.407,3.176,0.454
		c1.396,0.047,1.842,0.059,5.397,0.059c3.556,0,4.001-0.012,5.397-0.059c1.394-0.047,2.346-0.213,3.177-0.454
		c0.861-0.249,1.591-0.583,2.318-1.126c0.727-0.542,1.176-1.087,1.511-1.728c0.324-0.621,0.544-1.331,0.608-2.37
		c0.064-1.042,0.079-1.374,0.079-4.025s-0.015-2.983-0.079-4.024c-0.064-1.039-0.284-1.749-0.608-2.37
		c-0.334-0.641-0.784-1.186-1.511-1.729c-0.727-0.542-1.458-0.876-2.318-1.125c-0.832-0.242-1.784-0.407-3.177-0.454
		C31.353,18.485,30.907,18.474,27.352,18.474"/>
	<g>
		<path fill="#3C3D3D" d="M27.997,29.484l-13.122-7.28l2.56-2.731l18.544-0.256l3.932,3.02L27.997,29.484z M16.944,21.169
			l11.024,6.052l9.475-5.78l-1.445-1.489L18.162,19.83L16.944,21.169z"/>
	</g>
</g>
</svg>
