<?xml version="1.0" encoding="utf-8"?>
<!-- Generator: Adobe Illustrator 16.0.0, SVG Export Plug-In . SVG Version: 6.00 Build 0)  -->
<!DOCTYPE svg PUBLIC "-//W3C//DTD SVG 1.1//EN" "http://www.w3.org/Graphics/SVG/1.1/DTD/svg11.dtd">
<svg version="1.1" id="Layer_1" xmlns="http://www.w3.org/2000/svg" xmlns:xlink="http://www.w3.org/1999/xlink" x="0px" y="0px"
	 width="304.802px" height="88.667px" viewBox="0 0 304.802 88.667" enable-background="new 0 0 304.802 88.667"
	 xml:space="preserve">
<g>
	<path fill="#999999" d="M57.545,30.548c0-11.448,8.787-20.787,20.787-20.787V5.224c-14,0-25.684,11.337-25.684,25.324
		c0,2.968,1.201,8.409,2.64,10.894l23.044,39.565V51.333C66.332,51.333,57.545,41.996,57.545,30.548z"/>
	<path fill="#F0B7C1" d="M78.332,5.224v4.537c12,0,20.786,9.338,20.786,20.787c0,11.448-8.786,20.786-20.786,20.786v29.674
		l22.399-39.347c1.307-2.257,2.742-8.144,2.742-11.112C103.475,16.562,92.332,5.224,78.332,5.224z"/>
	<path fill="#F0B7C1" stroke="#F0B7C1" stroke-miterlimit="10" d="M80.966,25.939c-0.145,0-0.746-0.005-1.807-0.014
		c-1.062-0.009-2.665-0.014-4.813-0.014c-0.018,1.845-0.031,3.242-0.04,4.197c-0.009,0.953-0.014,2.252-0.014,3.898
		c0,1.584,0.007,3.191,0.021,4.824c0.015,1.632,0.024,2.719,0.033,3.259h-2.225c0.019-0.54,0.033-1.643,0.048-3.306
		c0.014-1.665,0.02-3.292,0.02-4.885c0-1.566,0-2.809,0-3.73c0-0.923-0.013-2.341-0.04-4.257c-1.914-0.009-3.466-0.007-4.657,0.007
		c-1.19,0.014-1.846,0.021-1.962,0.021v-1.861c0.927,0,2.053,0.005,3.378,0.014c1.324,0.009,2.738,0.014,4.239,0.014
		c2.175,0,3.992-0.005,5.453-0.014c1.461-0.009,2.249-0.014,2.366-0.014V25.939z"/>
	<path fill="#F0B7C1" stroke="#F0B7C1" stroke-miterlimit="10" d="M98.164,41.011L96.477,42.4c-0.197-0.207-0.897-0.986-2.102-2.341
		c-1.204-1.354-3.06-3.465-5.563-6.334l0.013-0.121c0.343-0.09,0.797-0.286,1.362-0.587c0.566-0.3,1.042-0.629,1.43-0.979
		c0.333-0.305,0.622-0.682,0.87-1.131c0.247-0.45,0.37-1.052,0.37-1.81c0-0.691-0.182-1.287-0.546-1.788
		c-0.364-0.499-0.865-0.866-1.503-1.099c-0.521-0.198-1.069-0.317-1.644-0.357c-0.576-0.041-1.106-0.061-1.591-0.061
		c-0.324,0-0.571,0.002-0.742,0.007c-0.171,0.004-0.296,0.006-0.377,0.006c-0.02,1.71-0.029,3.216-0.034,4.521
		c-0.004,1.302-0.007,2.226-0.007,2.766c0,1.231,0.007,2.906,0.021,5.02c0.015,2.112,0.024,3.439,0.034,3.979h-2.225
		c0.009-0.54,0.021-1.585,0.04-3.135c0.017-1.55,0.026-3.48,0.026-5.791c0-0.449,0-1.28,0-2.495c0-1.212-0.021-3.423-0.066-6.632
		c0.089,0,0.537-0.009,1.346-0.027c0.809-0.018,1.553-0.026,2.235-0.026c0.78,0,1.538,0.045,2.274,0.135s1.455,0.283,2.155,0.579
		c0.889,0.377,1.593,0.932,2.114,1.663c0.52,0.732,0.779,1.593,0.779,2.58c0,1.276-0.393,2.339-1.177,3.186
		c-0.786,0.849-1.528,1.481-2.228,1.895v0.067c1.231,1.44,2.583,2.923,4.053,4.453C97.268,40.072,98.057,40.895,98.164,41.011z"/>
	<path fill="#F0B7C1" stroke="#F0B7C1" stroke-miterlimit="10" d="M116.414,41.369l-2.1,1.085c-0.036-0.099-0.324-0.769-0.862-2.009
		c-0.539-1.24-1.25-2.835-2.135-4.786h-7.981c-0.948,2.095-1.396,3.905-2.253,5.178c-0.704,1.045-1.527,2.032-1.583,2.167
		l-1.018-1.527c0.234-0.467,1.198-2.527,2.894-6.179c1.694-3.652,3.453-7.491,5.277-11.515h1.753
		c1.797,4.024,3.563,7.925,5.298,11.697C115.438,39.252,116.341,41.216,116.414,41.369z M110.555,33.933
		c-0.476-1.097-0.979-2.244-1.507-3.439c-0.53-1.198-1.085-2.447-1.667-3.752l-0.054,0.013c-0.453,0.988-0.998,2.202-1.636,3.643
		c-0.639,1.442-1.166,2.619-1.583,3.536l-0.006,0.014h6.459L110.555,33.933z"/>
	<path fill="#F0B7C1" stroke="#F0B7C1" stroke-miterlimit="10" d="M134.988,24.665c-0.045,0.107-0.996,2.157-2.852,6.15
		c-1.856,3.992-3.629,7.839-5.319,11.544h-1.793c-1.859-4.155-3.64-8.078-5.339-11.774c-1.698-3.696-2.588-5.633-2.669-5.813
		l2.103-1.045c0.062,0.181,0.875,2.052,2.434,5.615c1.56,3.564,3.064,6.918,4.512,10.064h0.026c1.472-3.227,3-6.624,4.583-10.192
		c1.584-3.568,2.404-5.406,2.458-5.513L134.988,24.665z"/>
	<path fill="#F0B7C1" stroke="#F0B7C1" stroke-miterlimit="10" d="M149.831,42.063c-0.081,0-0.679-0.005-1.792-0.014
		c-1.116-0.009-2.495-0.014-4.141-0.014c-1.142,0-2.187,0.005-3.135,0.014c-0.948,0.009-1.75,0.014-2.406,0.014
		c0.02-0.521,0.034-1.649,0.049-3.384c0.013-1.735,0.02-3.528,0.02-5.38c0-1.015-0.004-2.359-0.014-4.03s-0.026-3.402-0.055-5.191
		c0.64,0,1.437,0.005,2.395,0.014c0.957,0.009,1.942,0.014,2.959,0.014c1.717,0,3.114-0.005,4.192-0.014
		c1.079-0.009,1.663-0.014,1.752-0.014v1.874c-0.089,0-0.652-0.007-1.69-0.02c-1.039-0.014-2.33-0.021-3.876-0.021
		c-0.675,0-1.335,0.002-1.982,0.007c-0.646,0.004-1.158,0.007-1.537,0.007c0,1.016-0.009,2.028-0.025,3.04
		c-0.02,1.011-0.027,1.966-0.027,2.865c0.404,0,0.883,0.002,1.437,0.006c0.553,0.005,1.045,0.007,1.477,0.007
		c1.582,0,2.995-0.007,4.24-0.02c1.245-0.014,1.907-0.021,1.988-0.021v1.86c-0.071,0-0.813-0.007-2.226-0.021
		c-1.411-0.013-2.7-0.02-3.869-0.02c-0.432,0-0.945,0.002-1.544,0.007c-0.598,0.004-1.099,0.007-1.503,0.007
		c0,1.698,0.005,3.046,0.014,4.043c0.01,0.998,0.019,1.834,0.027,2.508c0.53,0.009,1.173,0.016,1.928,0.021
		c0.756,0.004,1.568,0.007,2.44,0.007c1.339,0,2.464-0.005,3.376-0.014c0.912-0.009,1.422-0.014,1.53-0.014L149.831,42.063
		L149.831,42.063z"/>
	<path fill="#F0B7C1" stroke="#F0B7C1" stroke-miterlimit="10" d="M166.089,42.063c-0.107,0-0.676-0.005-1.705-0.014
		c-1.029-0.009-2.344-0.014-3.943-0.014c-1.052,0-2.052,0.005-3,0.014c-0.947,0.009-1.75,0.014-2.405,0.014
		c0.018-1.546,0.033-3.112,0.047-4.698c0.014-1.587,0.021-3.144,0.021-4.672c0-2.553-0.009-4.498-0.026-5.838
		c-0.019-1.339-0.031-2.278-0.041-2.817h2.225c-0.019,1.158-0.032,2.496-0.041,4.016c-0.009,1.517-0.014,2.759-0.014,3.729
		c0,2.362,0.005,4.334,0.014,5.914c0.009,1.58,0.014,2.416,0.014,2.506c0.368,0,0.813,0.002,1.335,0.007
		c0.521,0.004,0.993,0.007,1.415,0.007c1.609,0,3.01-0.007,4.2-0.021c1.19-0.014,1.826-0.021,1.907-0.021L166.089,42.063
		L166.089,42.063z"/>
	<path fill="#F0B7C1" stroke="#F0B7C1" stroke-miterlimit="10" d="M179.072,42.09h-2.225c0.009-0.54,0.022-1.501,0.041-2.886
		c0.019-1.383,0.026-3.37,0.026-5.958c0-1.024-0.004-2.368-0.015-4.032c-0.009-1.662-0.025-3.388-0.054-5.176h2.225
		c-0.018,1.285-0.032,2.779-0.047,4.482c-0.014,1.703-0.021,3.094-0.021,4.173c0,2.732,0.009,4.846,0.026,6.343
		C179.05,40.533,179.063,41.55,179.072,42.09z"/>
	<path fill="#F0B7C1" stroke="#F0B7C1" stroke-miterlimit="10" d="M200.913,24.038c-0.019,1.411-0.033,3.024-0.047,4.84
		c-0.015,1.815-0.021,3.123-0.021,3.924c0,2.551,0.009,4.581,0.027,6.086c0.018,1.505,0.025,2.308,0.025,2.406l-1.793,0.876
		c-2.714-3.667-5.25-6.975-7.609-9.926c-2.359-2.952-3.725-4.658-4.093-5.116l-0.026,0.014c0,2.408,0.016,5.367,0.048,8.878
		c0.031,3.506,0.052,5.531,0.061,6.071h-2.104c0.009-0.225,0.021-1.025,0.04-2.4s0.027-3.289,0.027-5.743
		c0-0.979-0.006-2.28-0.015-3.903c-0.009-1.622-0.025-3.341-0.054-5.156l2.05-0.971c0.161,0.206,1.539,1.953,4.132,5.239
		c2.592,3.288,5.035,6.342,7.327,9.164l0.027-0.013c0-1.385-0.02-3.712-0.055-6.986c-0.035-3.273-0.055-5.701-0.055-7.282h2.106
		V24.038z"/>
	<path fill="#F0B7C1" stroke="#F0B7C1" stroke-miterlimit="10" d="M216.241,37.007c0,0.926-0.219,1.738-0.655,2.434
		c-0.437,0.696-1.023,1.261-1.762,1.691c-0.675,0.396-1.448,0.694-2.321,0.896c-0.872,0.203-1.839,0.304-2.902,0.304
		c-0.575,0-1.171-0.018-1.789-0.054c-0.615-0.036-0.974-0.059-1.072-0.067l-0.107-1.941c0.126,0.018,0.477,0.052,1.052,0.101
		c0.575,0.05,1.254,0.074,2.035,0.074c0.477,0,1.093-0.062,1.847-0.188c0.755-0.126,1.335-0.287,1.739-0.485
		c0.53-0.261,0.938-0.575,1.22-0.943c0.283-0.369,0.426-0.836,0.426-1.402c0-0.603-0.143-1.112-0.426-1.53
		c-0.283-0.417-0.753-0.82-1.407-1.207c-0.424-0.251-0.972-0.534-1.646-0.849c-0.673-0.315-1.28-0.638-1.82-0.971
		c-0.916-0.557-1.569-1.167-1.96-1.827c-0.392-0.661-0.587-1.396-0.587-2.204c0-0.827,0.179-1.544,0.534-2.15
		c0.354-0.607,0.816-1.126,1.383-1.558c0.576-0.432,1.28-0.755,2.113-0.971c0.832-0.216,1.757-0.323,2.773-0.323
		c0.559,0,1.125,0.016,1.693,0.047c0.572,0.031,0.899,0.052,0.98,0.061l0.188,1.955c-0.081-0.009-0.409-0.04-0.983-0.095
		c-0.575-0.054-1.285-0.08-2.129-0.08c-0.505,0-1.022,0.056-1.559,0.168c-0.535,0.112-1.004,0.285-1.409,0.52
		c-0.358,0.206-0.665,0.494-0.916,0.862c-0.252,0.369-0.378,0.8-0.378,1.295c0,0.44,0.133,0.864,0.397,1.273
		c0.265,0.409,0.761,0.829,1.49,1.26c0.367,0.225,0.855,0.483,1.463,0.776c0.605,0.292,1.201,0.608,1.786,0.95
		c0.897,0.53,1.574,1.139,2.028,1.827C216.015,35.342,216.241,36.126,216.241,37.007z"/>
	<path fill="#F0B7C1" stroke="#F0B7C1" stroke-miterlimit="10" d="M232.392,30.212c0,1.312-0.424,2.5-1.271,3.56
		c-0.849,1.061-1.982,1.78-3.4,2.157c-0.609,0.162-1.275,0.279-1.998,0.35c-0.723,0.072-1.528,0.109-2.417,0.109l0.027,5.703h-2.226
		c0.01-0.54,0.022-1.54,0.04-3c0.02-1.461,0.027-3.719,0.027-6.774c0-0.971-0.005-2.163-0.014-3.574
		c-0.01-1.411-0.027-2.979-0.055-4.705c0.388-0.009,0.766-0.014,1.139-0.014c0.372,0,0.676,0,0.908,0
		c1.554,0,2.875,0.099,3.967,0.297c1.09,0.197,2.008,0.534,2.754,1.011c0.815,0.513,1.439,1.18,1.872,2.002
		C232.177,28.157,232.392,29.116,232.392,30.212z M230.1,30.212c0-0.925-0.21-1.714-0.633-2.366
		c-0.422-0.651-1.069-1.166-1.941-1.543c-0.539-0.233-1.123-0.38-1.752-0.438c-0.63-0.059-1.275-0.088-1.94-0.088
		c-0.081,0-0.162,0-0.243,0s-0.166,0-0.256,0c0,0.099-0.009,0.772-0.027,2.022c-0.018,1.249-0.025,2.237-0.025,2.966
		c0,0.665,0.002,1.451,0.006,2.359c0.005,0.907,0.007,1.425,0.007,1.55c0.081,0,0.176,0,0.283,0s0.192,0,0.257,0
		c0.602,0,1.242-0.041,1.921-0.122c0.678-0.082,1.261-0.229,1.746-0.444c0.845-0.36,1.489-0.858,1.935-1.497
		C229.878,31.974,230.1,31.174,230.1,30.212z"/>
	<path fill="#F0B7C1" stroke="#F0B7C1" stroke-miterlimit="10" d="M252.682,33.071c0,1.456-0.249,2.792-0.748,4.01
		c-0.497,1.218-1.146,2.222-1.944,3.013c-0.891,0.881-1.833,1.521-2.829,1.922c-0.998,0.399-2.066,0.6-3.207,0.6
		c-1.113,0-2.165-0.191-3.152-0.573s-1.877-0.95-2.667-1.705c-0.872-0.818-1.574-1.85-2.108-3.094
		c-0.533-1.245-0.802-2.645-0.802-4.2c0-1.383,0.212-2.644,0.633-3.781c0.423-1.137,1.057-2.16,1.899-3.067
		c0.782-0.845,1.712-1.499,2.789-1.962c1.078-0.463,2.214-0.694,3.408-0.694c1.213,0,2.335,0.218,3.367,0.654
		c1.033,0.436,1.926,1.04,2.683,1.813c0.879,0.898,1.546,1.957,1.999,3.174C252.456,30.399,252.682,31.696,252.682,33.071z
		 M250.391,33.287c0-1.169-0.197-2.317-0.588-3.445c-0.39-1.128-0.987-2.074-1.788-2.838c-0.541-0.521-1.145-0.926-1.814-1.213
		c-0.67-0.288-1.419-0.432-2.247-0.432c-0.811,0-1.562,0.146-2.261,0.438c-0.697,0.292-1.328,0.721-1.896,1.287
		c-0.721,0.719-1.28,1.608-1.68,2.669c-0.401,1.061-0.603,2.167-0.603,3.317c0,1.293,0.205,2.453,0.615,3.478
		c0.408,1.024,0.986,1.892,1.733,2.602c0.513,0.494,1.119,0.892,1.821,1.193c0.701,0.301,1.452,0.451,2.254,0.451
		s1.55-0.146,2.246-0.438c0.698-0.293,1.33-0.713,1.896-1.261c0.675-0.647,1.228-1.472,1.66-2.475
		C250.175,35.621,250.391,34.509,250.391,33.287z"/>
</g>
<text transform="matrix(1 0 0 1 31.3025 42.3188)" fill="#FFFFFF" font-family="'TrebuchetMS-Bold'" font-size="25.9616">MY</text>
</svg>
